<svg width="26" height="26" viewBox="0 0 26 26" fill="none" xmlns="http://www.w3.org/2000/svg">
  <path d="M20.8758 5.77417C19.435 5.1025 17.875 4.615 16.25 4.33333C16.2357 4.33288 16.2215 4.33555 16.2084 4.34117C16.1953 4.34678 16.1836 4.3552 16.1741 4.36583C15.9791 4.72333 15.7516 5.18917 15.6 5.54667C13.8764 5.28667 12.1235 5.28667 10.4 5.54667C10.2483 5.17833 10.0208 4.72333 9.81497 4.36583C9.80413 4.34417 9.77163 4.33333 9.73913 4.33333C8.11413 4.615 6.56496 5.1025 5.1133 5.77417C5.10246 5.77417 5.09163 5.785 5.0808 5.79583C2.13413 10.205 1.32163 14.495 1.72246 18.7417C1.72246 18.7633 1.7333 18.785 1.75496 18.7958C3.70496 20.2258 5.57913 21.0925 7.43163 21.6667C7.46413 21.6775 7.49663 21.6667 7.50746 21.645C7.9408 21.0492 8.3308 20.4208 8.66663 19.76C8.6883 19.7167 8.66663 19.6733 8.6233 19.6625C8.0058 19.4242 7.4208 19.1425 6.84663 18.8175C6.8033 18.7958 6.8033 18.7308 6.8358 18.6983C6.95496 18.6117 7.07413 18.5142 7.1933 18.4275C7.21496 18.4058 7.24746 18.4058 7.26913 18.4167C10.9958 20.1175 15.015 20.1175 18.6983 18.4167C18.72 18.4058 18.7525 18.4058 18.7741 18.4275C18.8933 18.525 19.0125 18.6117 19.1316 18.7092C19.175 18.7417 19.175 18.8067 19.1208 18.8283C18.5575 19.1642 17.9616 19.435 17.3441 19.6733C17.3008 19.6842 17.29 19.7383 17.3008 19.7708C17.6475 20.4317 18.0375 21.06 18.46 21.6558C18.4925 21.6667 18.525 21.6775 18.5575 21.6667C20.4208 21.0925 22.295 20.2258 24.245 18.7958C24.2666 18.785 24.2775 18.7633 24.2775 18.7417C24.7541 13.8342 23.4866 9.57667 20.9191 5.79583C20.9083 5.785 20.8975 5.77417 20.8758 5.77417ZM9.22997 16.1525C8.11413 16.1525 7.18246 15.1233 7.18246 13.8558C7.18246 12.5883 8.09246 11.5592 9.22997 11.5592C10.3783 11.5592 11.2883 12.5992 11.2775 13.8558C11.2775 15.1233 10.3675 16.1525 9.22997 16.1525ZM16.7808 16.1525C15.665 16.1525 14.7333 15.1233 14.7333 13.8558C14.7333 12.5883 15.6433 11.5592 16.7808 11.5592C17.9291 11.5592 18.8391 12.5992 18.8283 13.8558C18.8283 15.1233 17.9291 16.1525 16.7808 16.1525Z" fill="black"/>
</svg>