<svg width="26" height="26" viewBox="0 0 26 26" fill="none" xmlns="http://www.w3.org/2000/svg">
  <path d="M13 2.16666C11.5773 2.16666 10.1686 2.44687 8.85422 2.99129C7.53986 3.53572 6.3456 4.3337 5.33964 5.33967C3.30799 7.37131 2.16663 10.1268 2.16663 13C2.16663 17.7883 5.27579 21.8508 9.57663 23.2917C10.1183 23.3783 10.2916 23.0425 10.2916 22.75V20.9192C7.29079 21.5692 6.65163 19.4675 6.65163 19.4675C6.15329 18.2108 5.44913 17.875 5.44913 17.875C4.46329 17.2033 5.52496 17.225 5.52496 17.225C6.60829 17.3008 7.18246 18.3408 7.18246 18.3408C8.12496 19.9875 9.71746 19.5 10.335 19.24C10.4325 18.5358 10.7141 18.0592 11.0175 17.7883C8.61246 17.5175 6.08829 16.5858 6.08829 12.4583C6.08829 11.2558 6.49996 10.2917 7.20413 9.52249C7.09579 9.25166 6.71663 8.12499 7.31246 6.66249C7.31246 6.66249 8.22246 6.36999 10.2916 7.76749C11.1475 7.52916 12.0791 7.40999 13 7.40999C13.9208 7.40999 14.8525 7.52916 15.7083 7.76749C17.7775 6.36999 18.6875 6.66249 18.6875 6.66249C19.2833 8.12499 18.9041 9.25166 18.7958 9.52249C19.5 10.2917 19.9116 11.2558 19.9116 12.4583C19.9116 16.5967 17.3766 17.5067 14.9608 17.7775C15.3508 18.1133 15.7083 18.7742 15.7083 19.7817V22.75C15.7083 23.0425 15.8816 23.3892 16.4341 23.2917C20.735 21.84 23.8333 17.7883 23.8333 13C23.8333 11.5773 23.5531 10.1686 23.0087 8.85425C22.4642 7.53989 21.6663 6.34563 20.6603 5.33967C19.6543 4.3337 18.4601 3.53572 17.1457 2.99129C15.8313 2.44687 14.4226 2.16666 13 2.16666Z" fill="black"/>
</svg>