<svg width="31" height="30" viewBox="0 0 31 30" fill="none" xmlns="http://www.w3.org/2000/svg">
<g id="Discord">
<path id="Vector" d="M24.5875 6.66256C22.925 5.88756 21.125 5.32506 19.25 5.00006C19.2336 4.99953 19.2172 5.00262 19.2021 5.0091C19.187 5.01558 19.1735 5.02529 19.1625 5.03756C18.9375 5.45006 18.675 5.98756 18.5 6.40006C16.5113 6.10006 14.4888 6.10006 12.5 6.40006C12.325 5.97506 12.0625 5.45006 11.825 5.03756C11.8125 5.01256 11.775 5.00006 11.7375 5.00006C9.86252 5.32506 8.07502 5.88756 6.40002 6.66256C6.38752 6.66256 6.37502 6.67506 6.36252 6.68756C2.96252 11.7751 2.02502 16.7251 2.48752 21.6251C2.48752 21.6501 2.50002 21.6751 2.52502 21.6876C4.77502 23.3376 6.93752 24.3376 9.07502 25.0001C9.11252 25.0126 9.15002 25.0001 9.16252 24.9751C9.66252 24.2876 10.1125 23.5626 10.5 22.8001C10.525 22.7501 10.5 22.7001 10.45 22.6876C9.73752 22.4126 9.06252 22.0876 8.40002 21.7126C8.35002 21.6876 8.35002 21.6126 8.38752 21.5751C8.52502 21.4751 8.66252 21.3626 8.80002 21.2626C8.82502 21.2376 8.86252 21.2376 8.88752 21.2501C13.1875 23.2126 17.825 23.2126 22.075 21.2501C22.1 21.2376 22.1375 21.2376 22.1625 21.2626C22.3 21.3751 22.4375 21.4751 22.575 21.5876C22.625 21.6251 22.625 21.7001 22.5625 21.7251C21.9125 22.1126 21.225 22.4251 20.5125 22.7001C20.4625 22.7126 20.45 22.7751 20.4625 22.8126C20.8625 23.5751 21.3125 24.3001 21.8 24.9876C21.8375 25.0001 21.875 25.0126 21.9125 25.0001C24.0625 24.3376 26.225 23.3376 28.475 21.6876C28.5 21.6751 28.5125 21.6501 28.5125 21.6251C29.0625 15.9626 27.6 11.0501 24.6375 6.68756C24.625 6.67506 24.6125 6.66256 24.5875 6.66256ZM11.15 18.6376C9.86252 18.6376 8.78752 17.4501 8.78752 15.9876C8.78752 14.5251 9.83753 13.3376 11.15 13.3376C12.475 13.3376 13.525 14.5376 13.5125 15.9876C13.5125 17.4501 12.4625 18.6376 11.15 18.6376ZM19.8625 18.6376C18.575 18.6376 17.5 17.4501 17.5 15.9876C17.5 14.5251 18.55 13.3376 19.8625 13.3376C21.1875 13.3376 22.2375 14.5376 22.225 15.9876C22.225 17.4501 21.1875 18.6376 19.8625 18.6376Z" fill="white"/>
</g>
</svg>
