<svg width="31" height="30" viewBox="0 0 31 30" fill="none" xmlns="http://www.w3.org/2000/svg">
<g id="YouTube">
<path id="Vector" d="M29.3948 8.1242C29.2297 7.51923 28.906 6.96753 28.4561 6.52432C28.0063 6.08111 27.446 5.76193 26.8314 5.59873C24.569 5 15.5 5 15.5 5C15.5 5 6.43103 5 4.16864 5.59554C3.55375 5.75821 2.99318 6.07721 2.54323 6.52051C2.09328 6.9638 1.76979 7.51578 1.60525 8.12102C1 10.3503 1 15 1 15C1 15 1 19.6497 1.60525 21.8758C1.93862 23.1051 2.92254 24.0732 4.16864 24.4013C6.43103 25 15.5 25 15.5 25C15.5 25 24.569 25 26.8314 24.4013C28.0807 24.0732 29.0614 23.1051 29.3948 21.8758C30 19.6497 30 15 30 15C30 15 30 10.3503 29.3948 8.1242ZM12.6194 19.2675V10.7325L20.1283 14.9682L12.6194 19.2675Z" fill="#FF0000"/>
</g>
</svg>
